<svg xmlns="http://www.w3.org/2000/svg" xmlns:xlink="http://www.w3.org/1999/xlink" width="71.456" height="70.573" viewBox="0 0 71.456 70.573"><defs><style>.a{fill:none;}.b{fill:url(#a);}.c{fill:url(#b);}.d{fill:url(#c);}</style><linearGradient id="a" x1="-5.325" y1="0.5" x2="6.562" y2="0.5" gradientUnits="objectBoundingBox"><stop offset="0" stop-color="#ff884b"/><stop offset="0.35" stop-color="#ff634c"/><stop offset="0.655" stop-color="#fe4a4f"/><stop offset="1" stop-color="#fe4840"/></linearGradient><linearGradient id="b" x1="-3.531" x2="4.695" xlink:href="#a"/><linearGradient id="c" x1="0.04" x2="0.967" xlink:href="#a"/></defs><g transform="translate(48.535 -146.4)"><path class="a" d="M22.771,187.268a2.125,2.125,0,0,0-1.8-1.268H20.96a2.1,2.1,0,0,0-1.783,1.3L-8.183,241.11a3.268,3.268,0,0,0,.125,3.176,2.071,2.071,0,0,0,1.7,1.1l56,.084a2.025,2.025,0,0,0,1.686-1.1,3.318,3.318,0,0,0,.07-3.232ZM18.425,202.16a2.786,2.786,0,1,1,5.572,0v19.5a2.786,2.786,0,1,1-5.572,0Zm2.786,36.122a4.026,4.026,0,1,1,4.026-4.026A4.019,4.019,0,0,1,21.211,238.282Z" transform="translate(-34.427 -34.083)"/><path class="b" d="M187.786,307.075a2.794,2.794,0,0,0,2.786-2.786v-19.5a2.786,2.786,0,0,0-5.572,0v19.5A2.794,2.794,0,0,0,187.786,307.075Z" transform="translate(-201.002 -116.71)"/><circle class="c" cx="4.026" cy="4.026" r="4.026" transform="translate(-17.242 196.147)"/><path class="d" d="M21.889,204.463l-28.628-53.87a7.554,7.554,0,0,0-6.715-4.193h-.07a7.57,7.57,0,0,0-6.7,4.3l-27.36,53.814a8.888,8.888,0,0,0,.334,8.609,7.6,7.6,0,0,0,6.45,3.761l56,.084h.014a7.556,7.556,0,0,0,6.464-3.8,8.927,8.927,0,0,0,.209-8.707ZM16.9,210.3a2.025,2.025,0,0,1-1.686,1.1l-56-.084a2.061,2.061,0,0,1-1.7-1.087,3.308,3.308,0,0,1-.125-3.176l27.374-53.842a2.1,2.1,0,0,1,1.783-1.3h.014a2.1,2.1,0,0,1,1.8,1.268l28.614,53.9a3.33,3.33,0,0,1-.07,3.218Z"/></g></svg>