<svg xmlns="http://www.w3.org/2000/svg" width="132.131" height="143.908" viewBox="0 0 132.131 143.908"><defs><style>.a{fill:#fed947;}.b{fill:#fed030;}.c{fill:#f8be32;}.d,.n{fill:#71ec85;}.e{fill:#41d159;}.f{fill:#fbbf7d;}.g{fill:#fdd8ae;}.h{fill:#787681;}.i{fill:#57565c;}.j{fill:#00bed4;}.k{fill:#1e97a5;}.l{fill:#083863;}.m{fill:#fff;}.n{fill-rule:evenodd;}</style></defs><g transform="translate(-477.215 -624.765)"><g transform="translate(477.215 624.765)"><circle class="a" cx="27.91" cy="27.91" r="27.91" transform="translate(37.546 44.044)"/><path class="b" d="M245.2,156.7a28.15,28.15,0,0,0-4.222.318,27.914,27.914,0,0,1,0,55.186,27.912,27.912,0,1,0,4.219-55.5Z" transform="translate(-179.744 -112.657)"/><path class="c" d="M179.219,209.237a30.018,30.018,0,1,1,30.018-30.018A30.018,30.018,0,0,1,179.219,209.237Zm0-55.82a25.8,25.8,0,1,0,25.8,25.8A25.8,25.8,0,0,0,179.219,153.417Z" transform="translate(-113.763 -107.265)"/><path class="d" d="M365.92,117.047H348.457a8,8,0,0,1-8-8h0a10.483,10.483,0,0,1,5.552-9.251l11.177-5.957L368.365,99.8a10.482,10.482,0,0,1,5.552,9.251h0a8,8,0,0,1-8,8Z" transform="translate(-251.264 -67.465)"/><path class="e" d="M400.373,99.8,389.2,93.842l-4.216,2.247,6.961,3.71a10.482,10.482,0,0,1,5.552,9.251h0a8,8,0,0,1-8,8h8.432a8,8,0,0,0,8-8h0a10.482,10.482,0,0,0-5.552-9.251Z" transform="translate(-283.271 -67.466)"/><path class="f" d="M382.666,80.16h9.016a.625.625,0,0,1,.625.625v4.57a5.133,5.133,0,0,1-5.133,5.133h0a5.133,5.133,0,0,1-5.133-5.133v-4.57a.625.625,0,0,1,.625-.625Z" transform="translate(-281.159 -57.629)"/><path class="g" d="M380.032,28.383l4.216.987v2.516a10.1,10.1,0,0,1-20.2,0V29.636l4.216-1.254c0-5.576.306-5.883,5.883-5.883a10.064,10.064,0,0,1,7.139,2.957C383.118,27.287,380.032,25.595,380.032,28.383Z" transform="translate(-268.224 -16.176)"/><path class="f" d="M401.727,10.456a10.1,10.1,0,0,0-9.247-2.735,10.1,10.1,0,0,1,7.991,9.877v3.5a10.1,10.1,0,0,1-7.991,9.877A10.1,10.1,0,0,0,404.687,21.1V17.6a10.067,10.067,0,0,0-2.96-7.142Z" transform="translate(-288.664 -5.392)"/><path class="h" d="M384.248,17.6v.987a14.812,14.812,0,0,1-8.842.587,13.939,13.939,0,0,1-3.823-1.611,6.619,6.619,0,0,1-7.533,1.29V17.6a10.1,10.1,0,0,1,20.2,0Z" transform="translate(-268.224 -5.392)"/><path class="i" d="M395.61,10.456a10.1,10.1,0,0,0-11.639-1.9c.094,0,.189-.007.284-.007a10.1,10.1,0,0,1,10.1,10.1v.9a15.661,15.661,0,0,0,4.216-.961V17.6a10.067,10.067,0,0,0-2.96-7.142Z" transform="translate(-282.546 -5.391)"/><path class="j" d="M77.961,445.015H60.5a8,8,0,0,1-8-8h0a10.482,10.482,0,0,1,5.552-9.251l11.177-5.957,11.177,5.957a10.482,10.482,0,0,1,5.552,9.251h0a8,8,0,0,1-8,8Z" transform="translate(-44.242 -303.251)"/><path class="k" d="M112.414,427.766l-11.177-5.957-4.216,2.247,6.961,3.71a10.482,10.482,0,0,1,5.552,9.251h0a8,8,0,0,1-8,8h8.432a8,8,0,0,0,8-8h0a10.483,10.483,0,0,0-5.552-9.251Z" transform="translate(-76.249 -303.252)"/><path class="f" d="M104.345,408.754v4.57a4.908,4.908,0,0,1-.079.891,5.131,5.131,0,0,1-10.186-.891v-4.57a.624.624,0,0,1,.624-.624h9.017a.622.622,0,0,1,.624.624Z" transform="translate(-74.135 -293.417)"/><path class="g" d="M92.073,356.351l4.216.987v2.516a10.1,10.1,0,0,1-20.2,0v-3.5c0-5.576,4.522-5.883,10.1-5.883a10.064,10.064,0,0,1,7.139,2.957C95.159,355.255,92.073,353.563,92.073,356.351Z" transform="translate(-61.202 -251.962)"/><path class="f" d="M113.768,338.424a10.1,10.1,0,0,0-9.247-2.735,10.1,10.1,0,0,1,7.991,9.877v3.5a10.1,10.1,0,0,1-7.991,9.877,10.1,10.1,0,0,0,12.207-9.877v-3.5A10.067,10.067,0,0,0,113.768,338.424Z" transform="translate(-81.641 -241.178)"/><path class="h" d="M96.289,345.567v.987a14.812,14.812,0,0,1-8.842.587,13.94,13.94,0,0,1-3.823-1.611,10.189,10.189,0,0,1-7.533,1.29v-1.254a10.1,10.1,0,0,1,20.2,0Z" transform="translate(-61.202 -241.178)"/><path class="i" d="M108.012,338.424a10.1,10.1,0,0,0-11.5-1.97c.048,0,.095,0,.142,0a10.1,10.1,0,0,1,10.1,10.1v.965a15.661,15.661,0,0,0,4.216-.961v-.987A10.067,10.067,0,0,0,108.012,338.424Z" transform="translate(-75.886 -241.177)"/><path class="l" d="M120.311,51.689h17.466a10.1,10.1,0,0,0,10.1-10.1,12.572,12.572,0,0,0-6.668-11.113l-4.845-2.582c0-.055.005-.109.005-.164V25.463a12.2,12.2,0,0,0,4.877-9.754v-3.5a12.207,12.207,0,1,0-24.414,0v3.5a12.2,12.2,0,0,0,5.057,9.885v2.131c0,.024,0,.048,0,.072l-5.021,2.675a12.6,12.6,0,0,0-6.668,11.113A10.116,10.116,0,0,0,120.311,51.689Zm.742-35.98v-3.5a7.99,7.99,0,0,1,15.961-.543,12.294,12.294,0,0,1-6.2.075,11.884,11.884,0,0,1-3.246-1.37,2.108,2.108,0,1,0-2.19,3.6,16.1,16.1,0,0,0,4.4,1.853,15.968,15.968,0,0,0,3.947.493,16.84,16.84,0,0,0,3.3-.333,7.989,7.989,0,1,1-15.976-.276Zm11.105,11.8v.213a3.024,3.024,0,0,1-6.049,0v-.168a12.19,12.19,0,0,0,6.049-.045Zm-16.54,9.759a8.36,8.36,0,0,1,3.239-3.079l4.348-2.316a7.232,7.232,0,0,0,11.808.067l4.218,2.248a8.363,8.363,0,0,1,4.435,7.393,5.886,5.886,0,0,1-5.888,5.888H120.311a5.9,5.9,0,0,1-5.888-5.888,8.385,8.385,0,0,1,1.2-4.313Zm-83.3,56.281c.032.018.064.037.1.053s.043.017.065.027.067.029.1.042c.049.019.1.035.148.05.033.01.066.02.1.029.056.014.111.024.167.033.027,0,.054.01.082.014a2.092,2.092,0,0,0,.252.016l.032,0a2.11,2.11,0,0,0,.249-.017c.034,0,.068-.014.1-.02.059-.011.117-.021.175-.037.037-.01.072-.024.108-.036.053-.018.107-.035.159-.057.036-.015.07-.034.106-.051s.1-.048.146-.076.068-.044.1-.067.088-.06.13-.093.066-.055.1-.084.076-.07.112-.107.062-.067.091-.1.064-.079.095-.12.054-.077.079-.118c.014-.022.03-.041.043-.064s.035-.068.052-.1c.007-.013.016-.025.022-.038l4.064-8.432a2.108,2.108,0,1,0-3.8-1.831l-1.846,3.831a56.776,56.776,0,0,1,74.016-67.837,2.108,2.108,0,1,0,1.417-3.971A60.99,60.99,0,0,0,29.522,87.069L26.283,85.2a2.108,2.108,0,1,0-2.111,3.649l8.1,4.688.043.021Zm86.276-21.6a30.018,30.018,0,1,0-30.018,30.018,30.018,30.018,0,0,0,30.018-30.018Zm-55.82,0a25.8,25.8,0,1,1,25.8,25.8,25.8,25.8,0,0,1-25.8-25.8Zm91.645-10.215-7.451-5.665c-.021-.016-.043-.029-.064-.044s-.043-.032-.066-.047l-.024-.014c-.034-.021-.068-.04-.1-.059s-.055-.031-.083-.045-.072-.033-.108-.049-.056-.025-.085-.036-.071-.024-.107-.036-.061-.02-.092-.028-.069-.016-.1-.024-.065-.015-.1-.02-.067-.009-.1-.013-.068-.008-.1-.011-.066,0-.1,0-.069,0-.1,0-.068,0-.1.007-.067,0-.1.009-.069.011-.1.017-.063.01-.094.017-.07.018-.106.028-.06.016-.089.026-.069.025-.1.038-.058.021-.086.034-.066.031-.1.047-.057.028-.085.044-.059.036-.089.054-.058.036-.087.056-.052.039-.078.059-.059.045-.088.069-.045.041-.068.062-.058.054-.086.083-.041.045-.061.068-.053.06-.078.093l-.017.02c-.016.021-.029.043-.044.064s-.033.043-.047.066l-5.088,7.857a2.108,2.108,0,0,0,3.539,2.292l2.3-3.548a56.773,56.773,0,0,1-69.989,63.81,2.108,2.108,0,1,0-1.032,4.088,60.994,60.994,0,0,0,14.929,1.855q.731,0,1.462-.017a60.949,60.949,0,0,0,58.835-70.122l2.992,2.275a2.108,2.108,0,1,0,2.552-3.356ZM60.276,122.69l-4.845-2.582c0-.055.005-.109.005-.164v-2.262a12.2,12.2,0,0,0,4.877-9.754v-3.5a12.207,12.207,0,0,0-24.414,0v3.5a12.2,12.2,0,0,0,5.057,9.884v2.132c0,.024,0,.048,0,.072l-5.023,2.675A12.6,12.6,0,0,0,29.269,133.8a10.116,10.116,0,0,0,10.1,10.1H56.839a10.1,10.1,0,0,0,10.1-10.1,12.568,12.568,0,0,0-6.668-11.113ZM40.115,107.928v-3.5a7.99,7.99,0,0,1,15.961-.543,12.3,12.3,0,0,1-6.2.075,11.885,11.885,0,0,1-3.246-1.37,2.108,2.108,0,0,0-2.191,3.6,15.982,15.982,0,0,0,8.345,2.346,16.839,16.839,0,0,0,3.3-.333,7.989,7.989,0,1,1-15.976-.276Zm11.105,11.8v.213a3.024,3.024,0,0,1-6.049,0v-.168a12.19,12.19,0,0,0,6.049-.045ZM61,137.968a5.851,5.851,0,0,1-4.165,1.724H39.374a5.9,5.9,0,0,1-5.888-5.888,8.38,8.38,0,0,1,4.433-7.392l4.349-2.316a7.232,7.232,0,0,0,11.807.067l4.218,2.248a8.36,8.36,0,0,1,4.435,7.393A5.851,5.851,0,0,1,61,137.968ZM92.089,90.049a2.108,2.108,0,0,0,1.524-3.564L85.6,78.1a10.57,10.57,0,0,0,8.38-8.252H96.3a2.108,2.108,0,0,0,0-4.216h-2.32a10.5,10.5,0,0,0-1.9-4.216H96.3a2.108,2.108,0,1,0,0-4.216H80.845a2.108,2.108,0,0,0,0,4.216h2.811a6.334,6.334,0,0,1,5.961,4.216H80.845a2.108,2.108,0,0,0,0,4.216h8.772a6.334,6.334,0,0,1-5.961,4.216H80.845a2.108,2.108,0,0,0-1.524,3.564L90.564,89.4A2.1,2.1,0,0,0,92.089,90.049Z" transform="translate(-23.119 0)"/></g><g transform="translate(515.207 668.645)"><ellipse class="m" cx="18.513" cy="18.869" rx="18.513" ry="18.869" transform="translate(10.642 11.014)"/><g transform="translate(0 0)"><path class="n" d="M56.147,28.073A28.073,28.073,0,1,1,28.073,0,28.073,28.073,0,0,1,56.147,28.073ZM42.215,17.441a2.633,2.633,0,0,0-3.79.076L26.238,33.046,18.893,25.7a2.633,2.633,0,0,0-3.72,3.72l9.285,9.288a2.633,2.633,0,0,0,3.787-.07L42.254,21.124a2.633,2.633,0,0,0-.034-3.685Z"/></g></g></g></svg>