<svg xmlns="http://www.w3.org/2000/svg" width="121" height="121" viewBox="0 0 121 121"><defs><style>.a{fill:#ff8848;}.b{fill:#0e989a;}.c{fill:none;}</style></defs><g transform="translate(-0.5 -0.5)"><path class="a" d="M84.406,11H69.281A3.781,3.781,0,0,0,65.5,14.781V63.938a3.781,3.781,0,0,0,3.781,3.781H84.406a3.781,3.781,0,0,0,3.781-3.781V14.781A3.781,3.781,0,0,0,84.406,11ZM80.625,60.156H73.063V18.563h7.563ZM23.906,11H8.781A3.781,3.781,0,0,0,5,14.781V63.938a3.781,3.781,0,0,0,3.781,3.781H23.906a3.781,3.781,0,0,0,3.781-3.781V14.781A3.781,3.781,0,0,0,23.906,11ZM20.125,60.156H12.563V18.563h7.563Z" transform="translate(13.906 30.594)"/><path class="b" d="M99.859,15.77,56.034,2.12a3.781,3.781,0,0,0-2.193,0L10.016,15.77A11.344,11.344,0,0,0,2,26.622V32.37A11.344,11.344,0,0,0,13.344,43.713H96.531A11.344,11.344,0,0,0,107.875,32.37V26.622A11.344,11.344,0,0,0,99.859,15.77Zm.454,16.6a3.781,3.781,0,0,1-3.781,3.781H13.344A3.781,3.781,0,0,1,9.563,32.37V26.622a3.781,3.781,0,0,1,2.685-3.781l42.69-12.97,42.69,13.121a3.781,3.781,0,0,1,2.685,3.781ZM96.531,85.307H13.344a11.344,11.344,0,1,0,0,22.688H96.531a11.344,11.344,0,0,0,0-22.688Zm0,15.125H13.344a3.781,3.781,0,0,1,0-7.563H96.531a3.781,3.781,0,0,1,0,7.563Z" transform="translate(5.562 5.443)"/><rect class="c" width="121" height="121" transform="translate(0.5 0.5)"/></g></svg>