<svg xmlns="http://www.w3.org/2000/svg" xmlns:xlink="http://www.w3.org/1999/xlink" width="451.707" height="457.947" viewBox="0 0 451.707 457.947">
  <defs>
    <linearGradient id="linear-gradient" x1="0.5" y1="1" x2="0.5" gradientUnits="objectBoundingBox">
      <stop offset="0" stop-color="#5558ff"/>
      <stop offset="1" stop-color="#00c0ff"/>
    </linearGradient>
    <linearGradient id="linear-gradient-2" x1="0.5" y1="1" x2="0.5" gradientUnits="objectBoundingBox">
      <stop offset="0" stop-color="#addcff"/>
      <stop offset="0.503" stop-color="#eaf6ff"/>
      <stop offset="1" stop-color="#eaf6ff"/>
    </linearGradient>
  </defs>
  <g id="notification" transform="translate(-540.87 -117.034)">
    <g id="notification-2" data-name="notification" transform="translate(647.423 196.423)">
      <g id="Group_67" data-name="Group 67" transform="translate(61.345 44.155)">
        <g id="Group_66" data-name="Group 66">
          <path id="Path_638" data-name="Path 638" d="M303.35,284.928a10.014,10.014,0,0,1-10.112-10.112V173.7a90.678,90.678,0,0,0-60.671-85.749L225.084,65.5h-45.5L171.9,87.948A90.678,90.678,0,0,0,111.224,173.7V274.816a10.014,10.014,0,0,1-10.112,10.112,10.112,10.112,0,0,0,0,20.224H171.9l30.086,20.224,30.586-20.224H303.35a10.112,10.112,0,0,0,0-20.224Z" transform="translate(-91 -65.499)" fill="url(#linear-gradient)"/>
        </g>
      </g>
      <g id="Group_69" data-name="Group 69" transform="translate(0 0.001)">
        <g id="Group_68" data-name="Group 68">
          <path id="Path_639" data-name="Path 639" d="M195.429,64.379c2.629.607,5.056,1.416,7.483,2.225V51.234a30.336,30.336,0,1,0-60.671,0V66.6c2.629-.81,5.056-1.619,7.685-2.225C163.678,60.335,181.07,60.335,195.429,64.379ZM142.241,293.92a30.336,30.336,0,1,0,60.671,0V283.808H142.241ZM35.1,242.876a10.108,10.108,0,0,0-.04-14.3,50.564,50.564,0,0,1,0-71.553A10.1,10.1,0,1,0,20.8,142.706a70.733,70.733,0,0,0,0,100.191,10.109,10.109,0,0,0,14.3-.02ZM310.078,142.725a10.109,10.109,0,0,0,0,14.3,50.517,50.517,0,0,1,0,71.553,10.118,10.118,0,0,0,14.3,14.318,70.782,70.782,0,0,0,0-100.191A10.108,10.108,0,0,0,310.078,142.725ZM64.308,214.249a10.109,10.109,0,0,0,0-14.3,10.107,10.107,0,0,1,0-14.3,10.111,10.111,0,1,0-14.3-14.3,30.323,30.323,0,0,0,0,42.9A10.108,10.108,0,0,0,64.308,214.249Zm216.536-42.9a10.109,10.109,0,0,0,0,14.3,10.107,10.107,0,0,1,0,14.3,10.111,10.111,0,1,0,14.3,14.3,30.323,30.323,0,0,0,0-42.9,10.108,10.108,0,0,0-14.3,0ZM342.19,2.963a10.109,10.109,0,0,0-14.3,0L2.962,327.892a10.111,10.111,0,0,0,14.3,14.3L342.19,17.262a10.108,10.108,0,0,0,0-14.3Z" transform="translate(0 -0.001)" fill="url(#linear-gradient-2)"/>
        </g>
      </g>
    </g>
    <g id="Group_70" data-name="Group 70" transform="translate(137 26)">
      <path id="Path_640" data-name="Path 640" d="M2343.891,2324.591s199.435,2.144,184.423,77.2-171.556,21.445-143.678-115.8,152.256-227.312,152.256-227.312" transform="translate(-1940 -1889)" fill="none" stroke="#cfe7f9" stroke-width="4" stroke-dasharray="11"/>
      <g id="filled_line" transform="translate(568.59 91.034)">
        <path id="Path_641" data-name="Path 641" d="M78.4,5.119V2H72.167V7.614L2.3,35.686l26.2,13.1L47.214,86.214,79.652,4.5Z" transform="translate(12.048 10.476)" fill="#e4f5f7"/>
        <path id="Path_642" data-name="Path 642" d="M5.5,9V30.833L17.976,24.6" transform="translate(28.81 47.143)" fill="#bfdadd"/>
        <path id="Path_643" data-name="Path 643" d="M99.186.624A7.912,7.912,0,0,0,95.443,0L1.871,37.429a3.535,3.535,0,0,0,0,6.238L31.19,58.014V77.976a3.241,3.241,0,0,0,1.248,2.5,2.292,2.292,0,0,0,1.871.624c.624,0,1.248,0,1.248-.624l9.981-4.99L56.767,97.938c0,1.248,1.248,1.871,2.5,1.871h0c1.248,0,2.5-.624,2.5-1.871l12.476-31.19a2.959,2.959,0,1,0-5.614-1.871L58.638,89.829,44.29,59.886,87.957,16.219,72.986,53.648A2.959,2.959,0,1,0,78.6,55.519L99.81,4.367A7.912,7.912,0,0,0,99.186.624Zm-15.6,11.229L39.924,55.519,10.6,41.171ZM37.429,72.986V61.133l.624.624,4.367,8.733Z" transform="translate(0)" fill="#2690ff"/>
      </g>
    </g>
  </g>
</svg>
