<svg xmlns="http://www.w3.org/2000/svg" width="58.244" height="82.627" viewBox="0 0 58.244 82.627"><defs><style>.a{fill:#effff8;}</style></defs><path class="a" d="M64.332,15.649H53.091a21.9,21.9,0,0,0-4.485-5.824H64.332a2.912,2.912,0,1,0,0-5.824H11.912a2.912,2.912,0,1,0,0,5.824H33.9a15.784,15.784,0,0,1,12.231,5.824H11.912a2.912,2.912,0,1,0,0,5.824H49.159a16.134,16.134,0,0,1,.612,4.4A15.959,15.959,0,0,1,33.9,41.859H15.232a2.912,2.912,0,0,0-2.184,4.834L47.033,85.542A2.912,2.912,0,1,0,51.4,81.7L21.668,47.683h12.26a21.871,21.871,0,0,0,21.259-26.21h9.144a2.912,2.912,0,1,0,0-5.824Z" transform="translate(-9 -4)"/></svg>