<svg xmlns="http://www.w3.org/2000/svg" width="48" height="48" viewBox="0 0 48 48"><defs><style>.a{fill:#7593d5;}.b{fill:#ebf1ff;}</style></defs><g transform="translate(-688 -685)"><circle class="a" cx="24" cy="24" r="24" transform="translate(688 685)"/><path class="b" d="M14.541,13.882a2.683,2.683,0,0,1,2,.841,2.853,2.853,0,0,1,0,4,2.8,2.8,0,0,1-4,0,2.8,2.8,0,0,1-.818-2.022,5.236,5.236,0,0,1,.045-.636l-6.861-4a2.907,2.907,0,0,1-2,.773A2.811,2.811,0,0,1,.84,12,2.809,2.809,0,0,1,0,9.929,2.812,2.812,0,0,1,.841,7.861a2.81,2.81,0,0,1,2.067-.84,2.908,2.908,0,0,1,2,.773L11.724,3.84a3.246,3.246,0,0,1-.091-.682,2.811,2.811,0,0,1,.841-2.068,2.963,2.963,0,0,1,4.135,0,2.783,2.783,0,0,1,.841,2.045A2.86,2.86,0,0,1,16.609,5.2a2.771,2.771,0,0,1-2.068.863,2.82,2.82,0,0,1-2-.818l-6.816,4a3.246,3.246,0,0,1,.091.682,3.246,3.246,0,0,1-.091.682l6.907,4A2.783,2.783,0,0,1,14.541,13.882Z" transform="translate(703.275 699.594)"/></g></svg>